<?xml version="1.0" encoding="iso-8859-1"?>
<!-- Generator: Adobe Illustrator 19.0.0, SVG Export Plug-In . SVG Version: 6.00 Build 0)  -->
<svg version="1.1" id="Capa_1" xmlns="http://www.w3.org/2000/svg" xmlns:xlink="http://www.w3.org/1999/xlink" x="0px" y="0px"
	 viewBox="0 0 512 512" style="enable-background:new 0 0 512 512;" xml:space="preserve">
<polygon style="fill:#4DA7FF;" points="87.518,0 87.518,52.966 370.001,52.966 370.001,459.034 422.966,459.034 422.966,0 "/>
<path style="opacity:0.15;fill:#666666;enable-background:new    ;" d="M87.518,35.31v17.655h282.483v406.069h17.655V44.138
	c0-4.873-3.955-8.828-8.828-8.828H87.518z"/>
<polygon style="fill:#4DA7FF;" points="370.001,512 34.552,512 34.552,52.966 87.518,52.966 370.001,52.966 "/>
<path style="fill:#FFCF40;" d="M268.483,339.862L268.483,339.862l-36.07,36.07l0,0c-6.894,6.894-6.894,18.07,0,24.964l19.174,19.174
	c6.894,6.894,18.07,6.894,24.964,0l1.518-1.518L312.621,384l44.138-44.138l36.07-36.069l0,0c6.894-6.894,6.894-18.07,0-24.964
	l-19.174-19.174c-6.894-6.894-18.07-6.894-24.964,0l-1.518,1.518l-34.551,34.551L268.483,339.862z"/>
<path style="fill:#CCA633;" d="M278.07,418.551l-36.829,36.829c-6.894,6.894-18.07,6.894-24.964,0l-19.174-19.174
	c-6.894-6.894-6.894-18.07,0-24.964l35.31-35.31l0,0l36.07-36.07l-9.587-9.587c-6.894-6.894-18.07-6.894-24.964,0l-80.967,80.967
	c-6.894,6.894-6.894,18.07,0,24.964l63.311,63.311c6.894,6.894,18.07,6.894,24.964,0l80.967-80.967
	c6.894-6.894,6.894-18.07,0-24.964L312.621,384L278.07,418.551z"/>
<path style="fill:#4DA7FF;" d="M197.103,436.206l19.174,19.174c6.894,6.894,18.07,6.894,24.964,0l36.829-36.829l0,0l-1.518,1.518
	c-6.894,6.894-18.07,6.894-24.964,0l-19.174-19.174c-6.894-6.894-6.894-18.07,0-24.964l-35.31,35.31
	C190.209,418.136,190.209,429.312,197.103,436.206z"/>
<path style="fill:#CCA633;" d="M422.966,194.207L422.966,194.207l-14.001-14.001c-6.894-6.894-18.07-6.894-24.964,0l-14.001,14.001
	l0,0l-66.966,66.966c-6.894,6.894-6.894,18.07,0,24.964l9.587,9.587l34.551-34.551l0,0l36.829-36.829
	c6.894-6.894,18.07-6.894,24.964,0l19.174,19.174c6.894,6.894,6.894,18.07,0,24.964l-35.31,35.31l0,0l-36.07,36.069l9.587,9.587
	c1.095,1.086,2.322,2.013,3.655,2.772l0,0c6.903,4.017,15.642,2.895,21.31-2.728l31.656-31.7l0,0l49.311-49.311
	c6.894-6.894,6.894-18.07,0-24.964L422.966,194.207z"/>
<g>
	<path style="fill:#666666;" d="M78.69,88.276h247.172c4.873,0,8.828,3.955,8.828,8.828l0,0c0,4.873-3.955,8.828-8.828,8.828H78.69
		c-4.873,0-8.828-3.955-8.828-8.828l0,0C69.863,92.231,73.817,88.276,78.69,88.276z"/>
	<path style="fill:#666666;" d="M78.69,132.414h247.172c4.873,0,8.828,3.955,8.828,8.828l0,0c0,4.873-3.955,8.828-8.828,8.828H78.69
		c-4.873,0-8.828-3.955-8.828-8.828l0,0C69.863,136.369,73.817,132.414,78.69,132.414z"/>
	<path style="fill:#666666;" d="M78.69,176.552h247.172c4.873,0,8.828,3.955,8.828,8.828l0,0c0,4.873-3.955,8.828-8.828,8.828H78.69
		c-4.873,0-8.828-3.955-8.828-8.828l0,0C69.863,180.506,73.817,176.552,78.69,176.552z"/>
	<path style="fill:#666666;" d="M78.69,220.69h194.207c4.873,0,8.828,3.955,8.828,8.828l0,0c0,4.873-3.955,8.828-8.828,8.828H78.69
		c-4.873,0-8.828-3.955-8.828-8.828l0,0C69.863,224.644,73.817,220.69,78.69,220.69z"/>
	<path style="fill:#666666;" d="M78.69,264.828h167.724c4.873,0,8.828,3.955,8.828,8.828l0,0c0,4.873-3.955,8.828-8.828,8.828H78.69
		c-4.873,0-8.828-3.955-8.828-8.828l0,0C69.863,268.782,73.817,264.828,78.69,264.828z"/>
</g>
<g>
</g>
<g>
</g>
<g>
</g>
<g>
</g>
<g>
</g>
<g>
</g>
<g>
</g>
<g>
</g>
<g>
</g>
<g>
</g>
<g>
</g>
<g>
</g>
<g>
</g>
<g>
</g>
<g>
</g>
</svg>
