<?xml version="1.0" encoding="iso-8859-1"?>
<!-- Generator: Adobe Illustrator 19.0.0, SVG Export Plug-In . SVG Version: 6.00 Build 0)  -->
<svg version="1.1" id="Capa_1" xmlns="http://www.w3.org/2000/svg" xmlns:xlink="http://www.w3.org/1999/xlink" x="0px" y="0px"
	 viewBox="0 0 512 512" style="enable-background:new 0 0 512 512;" xml:space="preserve">
<path style="fill:#3D5868;" d="M420.635,5.817c-6.577-7.042-15.416-7.74-23.061-1.824c-12.408,9.598-50.164,38.802-108.59,19.821
	c-47.158-15.322-84.027-18.627-112.717-10.11c-27.203,8.078-46.822,27.164-58.347,56.756
	c-28.998,19.608-42.123,50.954-37.978,90.828c3.229,31.07,16.247,60.949,26.412,77.094c2.208,3.506,6.838,4.556,10.343,2.351
	c2.262-1.424,3.495-3.858,3.497-6.347h241.566c0.002,2.489,1.235,4.923,3.497,6.347c1.241,0.782,2.623,1.154,3.989,1.154
	c2.491,0,4.928-1.241,6.353-3.505c10.82-17.186,25.956-58.791,26.647-98.844c22.462-26.584,28.41-58.279,29.947-75.072
	C434.541,38.866,430.002,15.846,420.635,5.817z"/>
<path style="fill:#2A434F;" d="M420.635,5.817c-6.577-7.042-15.416-7.74-23.061-1.824c-1.892,1.463-4.376,3.384-7.431,5.519
	c7.406,11.339,10.796,32.116,8.706,54.954c-1.537,16.794-7.486,48.488-29.947,75.072c-0.643,37.233-13.767,75.795-24.303,94.848
	h17.164c0.002,2.489,1.235,4.923,3.497,6.347c1.241,0.782,2.623,1.154,3.989,1.154c2.491,0,4.928-1.241,6.353-3.505
	c10.82-17.186,25.956-58.791,26.647-98.844c22.462-26.584,28.41-58.279,29.947-75.072C434.541,38.866,430.002,15.846,420.635,5.817z
	"/>
<path style="fill:#F0EEEE;" d="M296.627,355.948H190.774c-45.689,0-82.859,37.171-82.859,82.86V504.5c0,4.142,3.357,7.5,7.5,7.5
	h256.573c4.143,0,7.5-3.358,7.5-7.5v-65.693C379.487,393.118,342.316,355.948,296.627,355.948z"/>
<path style="fill:#D9D4D4;" d="M296.627,355.948h-25.249c45.689,0,82.859,37.171,82.859,82.86V504.5c0,4.142-3.357,7.5-7.5,7.5
	h25.249c4.143,0,7.5-3.358,7.5-7.5v-65.693C379.487,393.118,342.316,355.948,296.627,355.948z"/>
<rect x="201.607" y="363.442" style="fill:#49B6F2;" width="84.188" height="148.557"/>
<g>
	<polygon style="fill:#68C8FC;" points="243.701,370.883 243.701,407.717 285.796,437.002 285.796,363.446 	"/>
	<polygon style="fill:#68C8FC;" points="201.606,437.002 243.701,407.717 243.701,370.883 201.606,363.446 	"/>
</g>
<path style="fill:#19303F;" d="M329.404,443.252c-4.143,0-7.5-3.358-7.5-7.5v-36.167c0-41.767-33.979-75.747-75.746-75.747
	s-75.747,33.979-75.747,75.747v31.147c0,4.142-3.357,7.5-7.5,7.5s-7.5-3.358-7.5-7.5v-31.147c0-50.038,40.708-90.747,90.746-90.747
	s90.747,40.709,90.747,90.747v36.167C336.904,439.894,333.546,443.252,329.404,443.252z"/>
<g>
	<path style="fill:#FA9E3E;" d="M201.606,267.734v90.666c0,23.248,18.847,42.095,42.095,42.095l0,0
		c23.249,0,42.095-18.847,42.095-42.095v-90.666H201.606z"/>
	<path style="fill:#FA9E3E;" d="M113.543,223.996h49.368v56.609h-49.368c-15.632,0-28.304-12.672-28.304-28.304
		S97.91,223.996,113.543,223.996z"/>
	<path style="fill:#FA9E3E;" d="M373.859,223.996h-49.368v56.609h49.368c15.632,0,28.304-12.672,28.304-28.304
		S389.491,223.996,373.859,223.996z"/>
</g>
<path style="fill:#FFB56B;" d="M355.808,166.145v63.325c0,61.964-49.757,113.115-111.72,113.324
	c-62.097,0.21-112.495-50.069-112.495-112.107v-43.799c0-0.888,0.531-1.68,1.339-2.049c27.127-12.389,36.179-44.534,38.57-67.55
	c0.51-4.964,0.71-9.502,0.717-13.326c0.004-2.064,2.55-3.022,3.924-1.483c3.16,3.54,8.072,8.776,14.499,14.808
	c29.63,27.835,91.462,72.686,162.161,46.743C354.262,163.496,355.808,164.59,355.808,166.145z"/>
<path style="fill:#19303F;" d="M243.701,288.489c-13.493,0-26.141-6.631-33.832-17.739c-2.358-3.405-1.509-8.077,1.896-10.436
	c3.403-2.358,8.078-1.509,10.436,1.896c4.891,7.063,12.928,11.279,21.501,11.279s16.61-4.216,21.501-11.279
	c2.358-3.405,7.029-4.254,10.435-1.896c3.405,2.358,4.255,7.03,1.897,10.436C269.841,281.858,257.194,288.489,243.701,288.489z"/>
<path style="fill:#EF9245;" d="M332.479,242.348c0,53.577-41.948,97.352-94.792,100.284h0.002c0.989,0.052,1.982,0.092,2.977,0.119
	c0.006,0,0.012,0.001,0.019,0.001c1.002,0.027,2.007,0.041,3.015,0.041l0,0c2.841,0,5.657-0.108,8.445-0.315
	c0.144-0.011,0.289-0.023,0.433-0.034c1.704-0.134,3.397-0.306,5.079-0.515c55.331-6.872,98.15-54.061,98.15-111.244v-67.799
	c-7.893,3.111-15.68,5.33-23.328,6.778v72.683H332.479z"/>
<g>
	<path style="fill:#19303F;" d="M298.023,232.968c-4.143,0-7.5-3.358-7.5-7.5v-2c0-4.142,3.357-7.5,7.5-7.5s7.5,3.358,7.5,7.5v2
		C305.523,229.61,302.166,232.968,298.023,232.968z"/>
	<path style="fill:#19303F;" d="M189.379,232.968c-4.143,0-7.5-3.358-7.5-7.5v-2c0-4.142,3.357-7.5,7.5-7.5
		c4.143,0,7.5,3.358,7.5,7.5v2C196.879,229.61,193.521,232.968,189.379,232.968z"/>
</g>
<path style="fill:#78D6D1;" d="M162.911,423.232c-12.108,0-21.959,9.851-21.959,21.958c0,12.107,9.851,21.958,21.959,21.958
	s21.959-9.851,21.959-21.958C184.869,433.083,175.018,423.232,162.911,423.232z"/>
<path style="fill:#304A56;" d="M243.701,407.717l-22.533,15.675c5.686,5.919,13.676,9.61,22.533,9.61
	c8.857,0,16.846-3.69,22.533-9.61L243.701,407.717z"/>
<g>
	<path style="fill:#3D5868;" d="M243.701,433.002c-3.272,0-6.425-0.507-9.387-1.44L223.951,512h39.499l-10.363-80.438
		C250.125,432.495,246.973,433.002,243.701,433.002z"/>
	<path style="fill:#3D5868;" d="M349.285,491.045h-3.639c-4.143,0-7.5-3.358-7.5-7.5c0-2.73,1.458-5.119,3.639-6.431v-21.483
		c0-6.827-5.554-12.38-12.381-12.38c-6.827,0-12.381,5.554-12.381,12.38v21.483c2.181,1.312,3.639,3.701,3.639,6.431
		c0,4.142-3.357,7.5-7.5,7.5h-3.639c-4.143,0-7.5-3.358-7.5-7.5v-27.913c0-15.098,12.283-27.379,27.38-27.379
		c15.098,0,27.38,12.283,27.38,27.379v27.913C356.784,487.687,353.426,491.045,349.285,491.045z"/>
</g>
<g>
</g>
<g>
</g>
<g>
</g>
<g>
</g>
<g>
</g>
<g>
</g>
<g>
</g>
<g>
</g>
<g>
</g>
<g>
</g>
<g>
</g>
<g>
</g>
<g>
</g>
<g>
</g>
<g>
</g>
</svg>
