<?xml version="1.0" encoding="iso-8859-1"?>
<!-- Generator: Adobe Illustrator 19.0.0, SVG Export Plug-In . SVG Version: 6.00 Build 0)  -->
<svg version="1.1" id="Capa_1" xmlns="http://www.w3.org/2000/svg" xmlns:xlink="http://www.w3.org/1999/xlink" x="0px" y="0px"
	 viewBox="0 0 512 512" style="enable-background:new 0 0 512 512;" xml:space="preserve">
<path style="fill:#FFCF40;" d="M187.733,230.4c-9.387,0-17.067,7.68-17.067,17.067v128c0,9.387,7.68,17.067,17.067,17.067h136.533
	c9.387,0,17.067-7.68,17.067-17.067v-128c0-9.387-7.68-17.067-17.067-17.067H187.733z M281.6,290.133
	c0,6.827-3.413,14.507-8.533,18.773V358.4h-34.133v-49.493c-10.24-9.387-11.093-25.6-1.707-35.84
	c9.387-10.24,25.6-11.093,35.84-1.707C278.187,275.627,281.6,282.453,281.6,290.133z"/>
<path style="fill:#FF8838;" d="M230.4,290.133c0,6.827,3.413,14.507,8.533,18.773V358.4h34.133v-49.493
	c10.24-9.387,11.093-25.6,1.707-35.84s-25.6-11.093-35.84-1.707C233.813,275.627,230.4,282.453,230.4,290.133z"/>
<path style="opacity:0.15;fill:#666666;enable-background:new    ;" d="M256,264.533c-1.707,0-2.56,0-4.267,0
	c13.653,2.56,23.04,15.36,21.333,29.013c-0.853,5.973-3.413,11.093-8.533,14.507V358.4h8.533v-49.493
	c10.24-9.387,11.093-25.6,1.707-35.84C270.507,267.947,263.68,264.533,256,264.533z"/>
<rect x="119.467" y="76.8" style="fill:#A5A5A5;" width="119.467" height="34.133"/>
<g>
	<path style="fill:#666666;" d="M128,128H76.8v-17.067H42.667v34.133c0,9.387,7.68,17.067,17.067,17.067h85.333
		c9.387,0,17.067-7.68,17.067-17.067v-34.133H128V128z"/>
	<path style="fill:#666666;" d="M76.8,59.733H128V76.8h34.133V42.667c0-9.387-7.68-17.067-17.067-17.067H59.733
		c-9.387,0-17.067,7.68-17.067,17.067V76.8H76.8V59.733z"/>
</g>
<rect x="273.067" y="76.8" style="fill:#A5A5A5;" width="119.467" height="34.133"/>
<g>
	<path style="fill:#666666;" d="M230.4,59.733h51.2V76.8h34.133V42.667c0-9.387-7.68-17.067-17.067-17.067h-85.333
		c-9.387,0-17.067,7.68-17.067,17.067V76.8H230.4V59.733z"/>
	<path style="fill:#666666;" d="M281.6,128h-51.2v-17.067h-34.133v34.133c0,9.387,7.68,17.067,17.067,17.067h85.333
		c9.387,0,17.067-7.68,17.067-17.067v-34.133H281.6V128z"/>
	<path style="fill:#666666;" d="M435.2,128H384v-17.067h-34.133v34.133c0,9.387,7.68,17.067,17.067,17.067h85.333
		c9.387,0,17.067-7.68,17.067-17.067v-34.133H435.2V128z"/>
	<path style="fill:#666666;" d="M384,59.733h51.2V76.8h34.133V42.667c0-9.387-7.68-17.067-17.067-17.067h-85.333
		c-9.387,0-17.067,7.68-17.067,17.067V76.8H384V59.733z"/>
</g>
<g>
	<rect x="426.667" y="76.8" style="fill:#A5A5A5;" width="85.333" height="34.133"/>
	<rect y="76.8" style="fill:#A5A5A5;" width="85.333" height="34.133"/>
	<polygon style="fill:#A5A5A5;" points="230.4,162.133 230.4,230.4 281.6,230.4 281.6,162.133 	"/>
</g>
<path style="fill:#FFCF40;" d="M247.467,486.4c-5.973,0-11.947-0.853-17.92-1.707l2.56-17.067c5.12,0.853,11.093,1.707,16.213,1.707
	L247.467,486.4z M265.387,486.4l-0.853-17.067c5.12,0,11.093-0.853,16.213-1.707l2.56,17.067
	C277.333,485.547,271.36,485.547,265.387,486.4L265.387,486.4z M210.773,480.427c-5.973-1.707-11.947-3.413-17.067-5.12
	l5.973-16.213c5.12,1.707,10.24,3.413,15.36,5.12L210.773,480.427z M301.227,480.427l-4.267-16.213
	c5.12-1.707,10.24-3.413,15.36-5.12l5.973,16.213C313.173,477.013,307.2,478.72,301.227,480.427L301.227,480.427z M176.64,467.627
	c-5.12-2.56-11.093-5.973-16.213-8.533l9.387-14.507c4.267,2.56,9.387,5.973,14.507,7.68L176.64,467.627z M335.36,467.627
	l-7.68-15.36c5.12-2.56,9.387-5.12,14.507-7.68l9.387,14.507C346.453,462.507,341.333,465.067,335.36,467.627L335.36,467.627z
	 M145.92,448.853c-5.12-3.413-9.387-7.68-13.653-11.947l11.947-11.947c4.267,3.413,8.533,7.68,12.8,11.093L145.92,448.853z
	 M366.08,448l-10.24-12.8c4.267-3.413,8.533-6.827,12.8-11.093l11.947,11.947C376.32,440.32,371.2,444.587,366.08,448L366.08,448z
	 M119.467,423.253c-4.267-4.267-7.68-9.387-11.093-14.507l13.653-9.387c3.413,4.267,6.827,8.533,10.24,12.8L119.467,423.253z
	 M392.533,423.253l-12.8-11.093c3.413-4.267,6.827-8.533,10.24-12.8l13.653,9.387C400.213,413.867,396.8,418.133,392.533,423.253
	L392.533,423.253z M98.987,393.387c-2.56-5.12-5.973-11.093-7.68-16.213l15.36-6.827c2.56,5.12,4.267,10.24,6.827,14.507
	L98.987,393.387z M413.013,392.533L397.653,384c2.56-5.12,5.12-10.24,6.827-14.507l15.36,6.827
	C418.987,382.293,416.427,387.413,413.013,392.533L413.013,392.533z M84.48,360.107c-1.707-5.973-3.413-11.947-4.267-17.92
	l17.067-3.413c0.853,5.12,2.56,11.093,4.267,16.213L84.48,360.107z M427.52,359.253l-16.213-5.12
	c1.707-5.12,2.56-10.24,4.267-16.213l17.067,3.413C430.933,347.307,429.227,353.28,427.52,359.253z M77.653,324.267
	C76.8,318.293,76.8,313.173,76.8,307.2v-1.707h17.067v1.707c0,5.12,0,10.24,0.853,15.36L77.653,324.267z M434.347,323.413
	l-17.067-1.707c0.853-4.267,0.853-9.387,0.853-14.507v-1.707H435.2v1.707C435.2,312.32,435.2,318.293,434.347,323.413z
	 M94.72,289.28l-17.067-1.707c0.853-5.973,1.707-11.947,2.56-17.92l17.067,3.413C96.427,278.187,95.573,284.16,94.72,289.28z
	 M417.28,288.427c-0.853-5.12-1.707-11.093-2.56-16.213l17.067-3.413c1.707,5.973,2.56,11.947,2.56,17.92L417.28,288.427z
	 M101.547,256.853l-16.213-5.12c1.707-5.973,4.267-11.093,6.827-17.067l15.36,6.827
	C105.813,246.613,103.253,251.733,101.547,256.853L101.547,256.853z M410.453,256.853c-1.707-5.12-3.413-10.24-5.973-15.36
	l15.36-6.827c2.56,5.973,4.267,11.093,6.827,17.067L410.453,256.853z M115.2,226.987l-14.507-8.533
	c3.413-5.12,5.973-10.24,10.24-15.36l13.653,10.24C121.173,217.6,117.76,221.867,115.2,226.987z M396.8,226.133
	c-2.56-5.12-5.973-9.387-8.533-13.653l13.653-10.24c3.413,5.12,6.827,10.24,10.24,15.36L396.8,226.133z"/>
<g>
</g>
<g>
</g>
<g>
</g>
<g>
</g>
<g>
</g>
<g>
</g>
<g>
</g>
<g>
</g>
<g>
</g>
<g>
</g>
<g>
</g>
<g>
</g>
<g>
</g>
<g>
</g>
<g>
</g>
</svg>
