<svg height="512pt" viewBox="0 -19 512 512" width="512pt" xmlns="http://www.w3.org/2000/svg"><path d="m253.960938 474.597656c15.582031 0 28.65625-10.699218 32.292968-25.152344-21.828125-18.914062-35.636718-46.835937-35.636718-77.984374 0-31.625 14.234374-59.917969 36.644531-78.835938v-131.078125c0-18.390625-14.910157-33.296875-33.300781-33.296875h-220.664063c-18.386719 0-33.296875 14.90625-33.296875 33.296875v279.753906c0 18.390625 14.910156 33.296875 33.296875 33.296875" fill="#5b9ed6"/><path d="m253.960938 128.25h-24.667969c18.390625 0 33.300781 14.90625 33.300781 33.296875v114.28125c0 5.195313-1.859375 10.210937-5.214844 14.179687-10.148437 11.988282-18.097656 25.894532-23.226562 41.101563-5.277344 12.394531-8.203125 26.027344-8.203125 40.347656 0 14.390625 2.949219 28.089844 8.273437 40.53125.035156.105469.070313.210938.105469.316407 4.890625 14.296874-5.566406 29.191406-20.679687 29.191406h-180.351563c-18.386719 0-33.296875-14.910156-33.296875-33.300782v33.105469c0 18.390625 14.910156 33.296875 33.300781 33.296875h220.660157c10.8125 0 20.417968-5.15625 26.5-13.144531.035156-.046875.070312-.09375.109374-.144531.242188-.324219.484376-.65625.71875-.992188.0625-.089844.121094-.179687.183594-.269531.203125-.296875.40625-.601563.601563-.910156.070312-.113281.144531-.230469.214843-.34375.175782-.285157.347657-.574219.515626-.867188.078124-.132812.15625-.269531.230468-.402343.15625-.277344.308594-.558594.453125-.839844.078125-.148438.15625-.300782.234375-.453125.136719-.273438.269532-.546875.398438-.824219.074218-.164062.152344-.324219.222656-.484375.125-.277344.242188-.554687.359375-.832031.070313-.167969.140625-.335938.207031-.503906.113282-.285157.21875-.570313.324219-.855469.0625-.167969.125-.335938.183594-.503907.109375-.308593.207031-.621093.304687-.933593.046875-.148438.097656-.296875.144532-.445313.136718-.464844.265624-.929687.386718-1.402344-1.125-.976562-2.226562-1.980468-3.308594-3.003906-.128906-.121094-.257812-.238281-.386718-.363281-1.039063-.992187-2.058594-2.007813-3.054688-3.042969-.140625-.144531-.277344-.289062-.414062-.433594-1.003906-1.050781-1.984375-2.121093-2.941406-3.21875-.09375-.109374-.191407-.21875-.285157-.328124-.996093-1.148438-1.972656-2.3125-2.917969-3.503907-13.976562-17.601562-22.332031-39.871093-22.332031-64.089843 0-31.625 14.238281-59.917969 36.644531-78.835938v-131.078125c.003907-18.390625-14.90625-33.296875-33.296874-33.296875zm0 0" fill="#4c83b3"/><path d="m64.9375 97.253906h157.386719v30.996094h-157.386719zm0 0" fill="#5a67ad"/><path d="m181.851562 97.253906h40.472657v30.996094h-40.472657zm0 0" fill="#48538a"/><path d="m32.226562 52.695312v32.054688c0 6.90625 5.601563 12.503906 12.503907 12.503906h197.796875c6.90625 0 12.503906-5.597656 12.503906-12.503906v-64.113281c0-6.90625-5.597656-12.503907-12.503906-12.503907h-197.796875c-6.90625 0-12.503907 5.601563-12.503907 12.503907zm0 0" fill="#5b9ed6"/><path d="m198.902344 8.132812v89.121094h43.625c6.90625 0 12.503906-5.597656 12.503906-12.503906v-64.113281c0-6.90625-5.597656-12.503907-12.503906-12.503907zm0 0" fill="#4c83b3"/><path d="m230 301.425781c0 47.699219-38.667969 86.371094-86.371094 86.371094-47.699218 0-86.371094-38.671875-86.371094-86.371094 0-47.703125 38.671876-86.375 86.371094-86.375 47.703125 0 86.371094 38.671875 86.371094 86.375zm0 0" fill="#ef2d57"/><path d="m192.582031 230.273438c9.589844 13.914062 15.21875 30.773437 15.21875 48.949218 0 47.703125-38.671875 86.371094-86.371093 86.371094-18.179688 0-35.035157-5.625-48.953126-15.21875 15.578126 22.597656 41.628907 37.421875 71.152344 37.421875 47.703125 0 86.371094-38.671875 86.371094-86.371094 0-29.523437-14.820312-55.574219-37.417969-71.152343zm0 0" fill="#d9294f"/><path d="m456.894531 371.457031c0 56.964844-46.175781 103.140625-103.140625 103.140625-56.960937 0-103.136718-46.175781-103.136718-103.140625 0-56.960937 46.175781-103.136719 103.136718-103.136719 56.964844 0 103.140625 46.175782 103.140625 103.136719zm0 0" fill="#fcda55"/><path d="m416.097656 289.292969c13.160156 17.316406 20.976563 38.917969 20.976563 62.34375 0 56.964843-46.175781 103.140625-103.140625 103.140625-23.425782 0-45.027344-7.816406-62.34375-20.976563 18.839844 24.789063 48.628906 40.796875 82.167968 40.796875 56.960938 0 103.136719-46.175781 103.136719-103.140625 0-33.535156-16.007812-63.324219-40.796875-82.164062zm0 0" fill="#d9bc4a"/><path d="m282.9375 445.441406c3.949219 3.429688 8.164062 6.566406 12.605469 9.375l142.273437-142.277344c-2.808594-4.441406-5.941406-8.65625-9.375-12.601562-.636718.351562-1.242187.792969-1.785156 1.335938l-142.382812 142.382812c-.542969.542969-.984376 1.144531-1.335938 1.785156zm0 0" fill="#d9bc4a"/><path d="m418.34375 140.191406c-36.875 8.921875-65.746094 39.203125-65.746094 78.457032v49.6875c.386719-.003907.769532-.015626 1.15625-.015626 56.964844 0 103.140625 46.175782 103.140625 103.140626 0 28.105468-11.246093 53.582031-29.480469 72.183593 1.617188.101563 3.242188.164063 4.882813.164063 44.019531 0 79.703125-35.683594 79.703125-79.699219v-145.460937c0-39.253907-28.386719-71.855469-65.746094-78.457032 0 0-18.355468-2.3125-27.910156 0zm0 0" fill="#f084ad"/><path d="m446.253906 140.191406c-10.007812-1.371094-19.308594-1.371094-27.910156 0-.28125.050782-.5625.117188-.84375.167969 36.9375 6.945313 64.898438 39.332031 64.898438 78.289063v145.460937c0 33.460937-20.628907 62.089844-49.859376 73.902344-1.640624 1.941406-3.347656 3.820312-5.125 5.632812 1.617188.101563 3.242188.164063 4.886719.164063 44.015625 0 79.699219-35.683594 79.699219-79.699219v-145.460937c0-39.253907-28.386719-71.855469-65.746094-78.457032zm0 0" fill="#d47499"/><path d="m418.75 291.378906c23.269531 18.910156 38.144531 47.757813 38.144531 80.078125 0 28.109375-11.246093 53.585938-29.480469 72.1875 1.617188.097657 3.242188.164063 4.882813.164063 44.019531 0 79.703125-35.683594 79.703125-79.699219v-72.730469zm0 0" fill="#ef2d57"/><path d="m482.398438 364.109375c0 33.460937-20.628907 62.085937-49.859376 73.902344-.761718.902343-1.539062 1.785156-2.332031 2.660156-.136719.148437-.273437.296875-.40625.445313-.785156.855468-1.578125 1.703124-2.386719 2.527343 1.617188.101563 3.242188.164063 4.882813.164063 44.019531 0 79.703125-35.683594 79.703125-79.699219v-72.730469h-29.601562zm0 0" fill="#cc264b"/><path d="m183.316406 293.496094h-31.757812v-31.757813c0-4.378906-3.550782-7.929687-7.929688-7.929687s-7.925781 3.550781-7.925781 7.929687v31.757813h-31.757813c-4.378906 0-7.929687 3.546875-7.929687 7.925781s3.550781 7.929687 7.929687 7.929687h31.757813v31.757813c0 4.378906 3.546875 7.929687 7.925781 7.929687s7.929688-3.550781 7.929688-7.929687v-31.757813h31.757812c4.378906 0 7.929688-3.550781 7.929688-7.929687s-3.550782-7.925781-7.929688-7.925781zm0 0" fill="#fff"/><g fill="#674297"><path d="m86.835938 104.980469c-4.378907 0-7.929688-3.550781-7.929688-7.929688v-89.121093c0-4.378907 3.550781-7.929688 7.929688-7.929688 4.378906 0 7.929687 3.550781 7.929687 7.929688v89.121093c0 4.378907-3.550781 7.929688-7.929687 7.929688zm0 0"/><path d="m143.75 104.980469c-4.378906 0-7.929688-3.550781-7.929688-7.929688v-89.121093c0-4.378907 3.550782-7.929688 7.929688-7.929688s7.925781 3.550781 7.925781 7.929688v89.121093c.003907 4.378907-3.546875 7.929688-7.925781 7.929688zm0 0"/><path d="m200.664062 104.980469c-4.378906 0-7.929687-3.550781-7.929687-7.929688v-89.121093c0-4.378907 3.550781-7.929688 7.929687-7.929688 4.378907 0 7.925782 3.550781 7.925782 7.929688v89.121093c.003906 4.378907-3.546875 7.929688-7.925782 7.929688zm0 0"/></g><path d="m281.523438 451.535156c-2.027344 0-4.054688-.777344-5.605469-2.324218-3.09375-3.097657-3.09375-8.117188 0-11.214844l142.382812-142.382813c3.097657-3.09375 8.117188-3.097656 11.214844 0 3.097656 3.097657 3.097656 8.117188 0 11.214844l-142.382813 142.382813c-1.550781 1.546874-3.578124 2.324218-5.609374 2.324218zm0 0" fill="#e69326"/></svg>