<?xml version="1.0" encoding="iso-8859-1"?>
<!-- Generator: Adobe Illustrator 19.0.0, SVG Export Plug-In . SVG Version: 6.00 Build 0)  -->
<svg version="1.1" id="Capa_1" xmlns="http://www.w3.org/2000/svg" xmlns:xlink="http://www.w3.org/1999/xlink" x="0px" y="0px"
	 viewBox="0 0 512 512" style="enable-background:new 0 0 512 512;" xml:space="preserve">
<g>
	<path style="fill:#E7ECED;" d="M476.681,132.414c-1.324,0-2.675-0.3-3.946-0.927L366.804,78.521
		c-4.361-2.18-6.126-7.486-3.946-11.847c2.18-4.361,7.495-6.118,11.847-3.946l105.931,52.966c4.361,2.18,6.126,7.486,3.946,11.847
		C483.037,130.631,479.921,132.414,476.681,132.414z"/>
	<path style="fill:#E7ECED;" d="M414.905,247.172c-2.631,0-5.235-1.174-6.974-3.407l-61.793-79.448
		c-2.993-3.858-2.295-9.393,1.545-12.385c3.849-3.019,9.393-2.295,12.385,1.545l61.793,79.448c2.993,3.858,2.295,9.393-1.545,12.385
		C418.701,246.572,416.794,247.172,414.905,247.172z"/>
	<path style="fill:#E7ECED;" d="M284.319,398.08c-2.684,0-5.332-1.218-7.071-3.531c-2.922-3.893-2.136-9.428,1.766-12.35
		l49.311-36.979c3.902-2.922,9.437-2.136,12.359,1.766c2.922,3.893,2.136,9.428-1.766,12.35l-49.311,36.979
		C288.018,397.497,286.164,398.08,284.319,398.08z"/>
	<path style="fill:#E7ECED;" d="M114.759,432.552H52.966c-4.873,0-8.828-3.946-8.828-8.828c0-4.882,3.955-8.828,8.828-8.828h61.793
		c4.873,0,8.828,3.946,8.828,8.828C123.586,428.606,119.631,432.552,114.759,432.552z"/>
	<path style="fill:#E7ECED;" d="M235.043,257.457c-1.774,0-3.575-0.539-5.129-1.651l-76.156-54.422
		c-3.964-2.834-4.882-8.342-2.048-12.314c2.834-3.972,8.351-4.882,12.314-2.048l76.156,54.422c3.964,2.834,4.882,8.342,2.048,12.314
		C240.508,256.177,237.798,257.457,235.043,257.457z"/>
	<path style="fill:#E7ECED;" d="M150.696,149.451c-2.463,0-4.908-1.015-6.647-3.019c-3.213-3.672-2.834-9.251,0.839-12.456
		l70.003-61.175c3.663-3.213,9.242-2.842,12.456,0.839c3.213,3.672,2.834,9.251-0.839,12.456l-70.003,61.175
		C154.827,148.736,152.753,149.451,150.696,149.451z"/>
	<path style="fill:#E7ECED;" d="M88.276,123.586c-4.873,0-8.828-3.946-8.828-8.828V52.966c0-4.882,3.955-8.828,8.828-8.828
		c4.873,0,8.828,3.946,8.828,8.828v61.793C97.103,119.64,93.149,123.586,88.276,123.586z"/>
	<path style="fill:#E7ECED;" d="M367.457,478.146c-1.298,0-2.613-0.283-3.858-0.892l-93.811-45.594
		c-4.387-2.127-6.215-7.415-4.078-11.802c2.136-4.387,7.406-6.206,11.802-4.078l93.811,45.594c4.387,2.127,6.215,7.415,4.078,11.802
		C373.875,476.319,370.732,478.146,367.457,478.146z"/>
</g>
<path style="fill:#366DB6;" d="M176.552,203.034c0-48.755-39.521-88.276-88.276-88.276S0,154.28,0,203.034
	c0,32.653,17.779,61.096,44.138,76.367v-23.27c0-9.825,8.298-17.788,18.529-17.788h51.218c10.231,0,18.529,7.962,18.529,17.788
	v23.252C158.782,264.139,176.552,235.688,176.552,203.034z"/>
<g>
	<circle style="fill:#DD352E;" cx="485.517" cy="132.414" r="26.483"/>
	<circle style="fill:#DD352E;" cx="26.483" cy="423.724" r="26.483"/>
	<circle style="fill:#DD352E;" cx="388.414" cy="485.517" r="26.483"/>
	<circle style="fill:#DD352E;" cx="256" cy="264.828" r="26.483"/>
</g>
<g>
	<circle style="fill:#FFFFFF;" cx="88.276" cy="176.552" r="26.483"/>
	<path style="fill:#FFFFFF;" d="M113.885,238.345H62.667c-10.231,0-18.529,7.962-18.529,17.788v23.27
		c12.994,7.53,28.036,11.908,44.138,11.908s31.144-4.378,44.138-11.908v-23.27C132.414,246.307,124.116,238.345,113.885,238.345z"/>
</g>
<path style="fill:#366DB6;" d="M388.414,88.276C388.414,39.521,348.893,0,300.138,0s-88.276,39.521-88.276,88.276
	c0,32.653,17.779,61.096,44.138,76.367v-23.27c0-9.825,8.298-17.788,18.529-17.788h51.218c10.231,0,18.529,7.962,18.529,17.788
	v23.252C370.644,149.38,388.414,120.929,388.414,88.276z"/>
<g>
	<circle style="fill:#FFFFFF;" cx="300.138" cy="61.793" r="26.483"/>
	<path style="fill:#FFFFFF;" d="M325.747,123.586h-51.218c-10.231,0-18.529,7.962-18.529,17.788v23.27
		c12.994,7.53,28.036,11.908,44.138,11.908s31.144-4.378,44.138-11.908v-23.27C344.276,131.549,335.978,123.586,325.747,123.586z"/>
</g>
<path style="fill:#366DB6;" d="M503.172,317.793c0-48.755-39.521-88.276-88.276-88.276s-88.276,39.521-88.276,88.276
	c0,32.653,17.779,61.096,44.138,76.367v-23.27c0-9.825,8.298-17.788,18.529-17.788h51.218c10.231,0,18.529,7.962,18.529,17.788
	v23.252C485.402,378.898,503.172,350.446,503.172,317.793z"/>
<g>
	<circle style="fill:#FFFFFF;" cx="414.897" cy="291.31" r="26.483"/>
	<path style="fill:#FFFFFF;" d="M440.505,353.103h-51.218c-10.231,0-18.529,7.962-18.529,17.788v23.27
		c12.994,7.53,28.036,11.908,44.138,11.908s31.144-4.378,44.138-11.908v-23.27C459.034,361.066,450.737,353.103,440.505,353.103z"/>
</g>
<path style="fill:#366DB6;" d="M291.31,423.724c0-48.755-39.521-88.276-88.276-88.276s-88.276,39.521-88.276,88.276
	c0,32.653,17.779,61.096,44.138,76.367v-23.27c0-9.825,8.298-17.788,18.529-17.788h51.218c10.231,0,18.529,7.962,18.529,17.788
	v23.252C273.54,484.829,291.31,456.377,291.31,423.724z"/>
<g>
	<circle style="fill:#FFFFFF;" cx="203.034" cy="397.241" r="26.483"/>
	<path style="fill:#FFFFFF;" d="M228.643,459.034h-51.218c-10.231,0-18.529,7.962-18.529,17.788v23.27
		c12.994,7.53,28.036,11.908,44.138,11.908s31.144-4.378,44.138-11.908v-23.27C247.172,466.997,238.874,459.034,228.643,459.034z"/>
</g>
<circle style="fill:#DD352E;" cx="88.276" cy="26.483" r="26.483"/>
<g>
</g>
<g>
</g>
<g>
</g>
<g>
</g>
<g>
</g>
<g>
</g>
<g>
</g>
<g>
</g>
<g>
</g>
<g>
</g>
<g>
</g>
<g>
</g>
<g>
</g>
<g>
</g>
<g>
</g>
</svg>
