<?xml version="1.0" encoding="iso-8859-1"?>
<!-- Generator: Adobe Illustrator 19.0.0, SVG Export Plug-In . SVG Version: 6.00 Build 0)  -->
<svg version="1.1" id="Capa_1" xmlns="http://www.w3.org/2000/svg" xmlns:xlink="http://www.w3.org/1999/xlink" x="0px" y="0px"
	 viewBox="0 0 512 512" style="enable-background:new 0 0 512 512;" xml:space="preserve">
<rect x="52.966" y="26.483" style="fill:#4DA7FF;" width="105.931" height="79.448"/>
<path style="fill:#FFCF40;" d="M238.345,238.345c0.026-9.578,3.204-18.882,9.031-26.483h-79.651v35.31l0,0v35.31h114.759
	C258.11,282.483,238.345,262.718,238.345,238.345z"/>
<g>
	<rect x="52.966" y="397.241" style="fill:#4DA7FF;" width="105.931" height="79.448"/>
	<rect x="353.103" y="397.241" style="fill:#4DA7FF;" width="105.931" height="79.448"/>
	<rect x="353.103" y="26.483" style="fill:#4DA7FF;" width="105.931" height="79.448"/>
</g>
<g>
	<path style="fill:#A5A5A5;" d="M185.379,476.69v-97.103c0-4.873-3.955-8.828-8.828-8.828H35.31c-4.873,0-8.828,3.955-8.828,8.828
		v97.103H0C0,496.19,15.81,512,35.31,512h141.241c19.5,0,35.31-15.81,35.31-35.31H185.379z M52.966,476.69v-79.448h105.931v79.448
		H52.966z"/>
	<path style="fill:#A5A5A5;" d="M185.379,105.931V8.828c0-4.873-3.955-8.828-8.828-8.828H35.31c-4.873,0-8.828,3.955-8.828,8.828
		v97.103H0c0,19.5,15.81,35.31,35.31,35.31h141.241c19.5,0,35.31-15.81,35.31-35.31H185.379z M52.966,105.931V26.483h105.931v79.448
		H52.966z"/>
	<path style="fill:#A5A5A5;" d="M485.517,476.69v-97.103c0-4.873-3.955-8.828-8.828-8.828H335.448c-4.873,0-8.828,3.955-8.828,8.828
		v97.103h-26.483c0,19.5,15.81,35.31,35.31,35.31H476.69c19.5,0,35.31-15.81,35.31-35.31H485.517z M353.103,476.69v-79.448h105.931
		v79.448H353.103z"/>
	<path style="fill:#A5A5A5;" d="M485.517,105.931V8.828c0-4.873-3.955-8.828-8.828-8.828H335.448c-4.873,0-8.828,3.955-8.828,8.828
		v97.103h-26.483c0,19.5,15.81,35.31,35.31,35.31H476.69c19.5,0,35.31-15.81,35.31-35.31H485.517z M353.103,105.931V26.483h105.931
		v79.448H353.103z"/>
</g>
<g>
	<rect x="167.724" y="282.483" style="fill:#FFCF40;" width="88.276" height="35.31"/>
	<polygon style="fill:#FFCF40;" points="256,317.793 344.276,317.793 344.276,282.483 282.483,282.483 256,282.483 	"/>
	<path style="fill:#FFCF40;" d="M326.621,238.345c0.071-24.302-19.571-44.059-43.882-44.129
		c-13.912-0.044-27.03,6.506-35.363,17.646l0,0c-14.663,19.43-10.787,47.06,8.633,61.723c19.43,14.663,47.06,10.787,61.723-8.633
		C323.513,257.28,326.63,247.94,326.621,238.345z"/>
</g>
<g>
	<rect x="326.621" y="88.276" style="opacity:0.15;fill:#474646;enable-background:new    ;" width="158.897" height="17.655"/>
	<path style="opacity:0.15;fill:#474646;enable-background:new    ;" d="M312.32,132.414c6.374,5.667,14.601,8.801,23.128,8.828
		H476.69c8.527-0.026,16.755-3.16,23.128-8.828H312.32z"/>
	<rect x="26.483" y="88.276" style="opacity:0.15;fill:#474646;enable-background:new    ;" width="158.897" height="17.655"/>
	<rect x="326.621" y="459.034" style="opacity:0.15;fill:#474646;enable-background:new    ;" width="158.897" height="17.655"/>
	<rect x="26.483" y="459.034" style="opacity:0.15;fill:#474646;enable-background:new    ;" width="158.897" height="17.655"/>
	<path style="opacity:0.15;fill:#474646;enable-background:new    ;" d="M12.182,132.414c6.374,5.667,14.601,8.801,23.128,8.828
		h141.241c8.527-0.026,16.755-3.16,23.128-8.828H12.182z"/>
	<path style="opacity:0.15;fill:#474646;enable-background:new    ;" d="M12.182,503.172c6.374,5.667,14.601,8.801,23.128,8.828
		h141.241c8.527-0.026,16.755-3.16,23.128-8.828H12.182z"/>
	<path style="opacity:0.15;fill:#474646;enable-background:new    ;" d="M312.32,503.172c6.374,5.667,14.601,8.801,23.128,8.828
		H476.69c8.527-0.026,16.755-3.16,23.128-8.828H312.32z"/>
</g>
<path style="fill:#FF8838;" d="M344.276,273.655h-22.422c19.58-21.672,17.885-55.119-3.787-74.699s-55.119-17.885-74.699,3.787
	c-0.088,0.097-0.177,0.194-0.256,0.291h-75.388c-4.873,0-8.828,3.955-8.828,8.828v105.931c0,4.873,3.955,8.828,8.828,8.828h176.552
	c4.873,0,8.828-3.955,8.828-8.828v-35.31C353.103,277.61,349.149,273.655,344.276,273.655z M282.483,203.034
	c19.5,0,35.31,15.81,35.31,35.31s-15.81,35.31-35.31,35.31s-35.31-15.81-35.31-35.31S262.983,203.034,282.483,203.034z M176.552,256
	h56.055c2.322,6.515,5.888,12.509,10.505,17.655h-66.56V256z M176.552,220.69h56.055c-2.03,5.667-3.072,11.635-3.09,17.655h-52.966
	V220.69z M176.552,291.31h70.621v17.655h-70.621V291.31z M335.448,308.966h-70.621V291.31h70.621V308.966z"/>
<g>
	<path style="fill:#474646;" d="M300.138,52.966h-17.655V35.31h17.655V52.966z M264.828,52.966h-17.655V35.31h17.655V52.966z
		 M229.517,52.966h-17.655V35.31h17.655V52.966z"/>
	<path style="fill:#474646;" d="M105.931,335.448H88.276v-17.655h17.655V335.448z M105.931,300.138H88.276v-17.655h17.655V300.138z
		 M105.931,264.828H88.276v-17.655h17.655V264.828z M105.931,229.517H88.276v-17.655h17.655V229.517z M105.931,194.207H88.276
		v-17.655h17.655V194.207z"/>
	<path style="fill:#474646;" d="M300.138,423.724h-17.655v-17.655h17.655V423.724z M264.828,423.724h-17.655v-17.655h17.655V423.724
		z M229.517,423.724h-17.655v-17.655h17.655V423.724z"/>
	<path style="fill:#474646;" d="M414.897,335.448h-17.655v-17.655h17.655V335.448z M414.897,300.138h-17.655v-17.655h17.655V300.138
		z M414.897,264.828h-17.655v-17.655h17.655V264.828z M414.897,229.517h-17.655v-17.655h17.655V229.517z M414.897,194.207h-17.655
		v-17.655h17.655V194.207z"/>
</g>
<g>
</g>
<g>
</g>
<g>
</g>
<g>
</g>
<g>
</g>
<g>
</g>
<g>
</g>
<g>
</g>
<g>
</g>
<g>
</g>
<g>
</g>
<g>
</g>
<g>
</g>
<g>
</g>
<g>
</g>
</svg>
