<svg height="512pt" viewBox="-61 0 511 512" width="512pt" xmlns="http://www.w3.org/2000/svg"><path d="m353.601562 44.136719h-317.792968c-19.5 0-35.308594 15.8125-35.308594 35.3125v397.242187c0 19.5 15.808594 35.308594 35.308594 35.308594h317.792968c19.503907 0 35.3125-15.808594 35.3125-35.308594v-397.242187c0-19.5-15.808593-35.3125-35.3125-35.3125zm0 0" fill="#6c4127"/><path d="m246.886719 26.484375c-9.453125 0-18.289063-4.539063-23.894531-12.148437-6.402344-8.6875-16.660157-14.335938-28.285157-14.335938s-21.882812 5.648438-28.285156 14.335938c-5.605469 7.609374-14.441406 12.148437-23.894531 12.148437h-22.589844c-12.332031 0-22.335938 10-22.335938 22.332031v48.285156h194.207032v-48.285156c0-12.332031-10-22.332031-22.332032-22.332031zm0 0" fill="#afb6bb"/><path d="m335.949219 79.449219h-44.140625v17.652343h-194.207032v-17.652343h-44.136718c-9.753906 0-17.65625 7.898437-17.65625 17.652343v361.933594c0 9.753906 7.902344 17.65625 17.65625 17.65625h282.484375c9.753906 0 17.652343-7.902344 17.652343-17.65625v-361.933594c0-9.753906-7.898437-17.652343-17.652343-17.652343zm0 0" fill="#f2ecbf"/><path d="m203.578125 70.621094h-17.742187c-4.847657 0-8.785157-3.9375-8.785157-8.785156v-17.742188c0-4.847656 3.9375-8.785156 8.785157-8.785156h17.742187c4.847656 0 8.785156 3.9375 8.785156 8.785156v17.742188c0 4.847656-3.9375 8.785156-8.785156 8.785156zm0 0" fill="#fff"/><path d="m265.328125 441.378906h-194.207031c-4.875 0-8.828125-3.953125-8.828125-8.828125 0-4.871093 3.953125-8.828125 8.828125-8.828125h194.207031c4.871094 0 8.828125 3.957032 8.828125 8.828125 0 4.875-3.957031 8.828125-8.828125 8.828125zm0 0" fill="#d6cea1"/><path d="m318.292969 441.378906h-17.65625c-4.871094 0-8.828125-3.953125-8.828125-8.828125 0-4.871093 3.957031-8.828125 8.828125-8.828125h17.65625c4.871093 0 8.828125 3.957032 8.828125 8.828125 0 4.875-3.957032 8.828125-8.828125 8.828125zm0 0" fill="#d6cea1"/><path d="m282.984375 353.101562h35.308594v35.3125h-35.308594zm0 0" fill="#57abc1"/><path d="m71.121094 353.101562h35.308594v35.3125h-35.308594zm0 0" fill="#dd352e"/><path d="m141.742188 353.101562h35.308593v35.3125h-35.308593zm0 0" fill="#ebba16"/><path d="m212.363281 353.101562h35.308594v35.3125h-35.308594zm0 0" fill="#61b872"/><path d="m221.191406 167.75c0 14.625-11.859375 26.484375-26.484375 26.484375s-26.484375-11.859375-26.484375-26.484375 11.859375-26.480469 26.484375-26.480469 26.484375 11.855469 26.484375 26.480469zm0 0" fill="#bcb48a"/><path d="m221.214844 229.542969h-53.015625c-14.609375 0-26.457031 11.847656-26.457031 26.457031v52.964844h105.929687v-52.964844c0-14.609375-11.847656-26.457031-26.457031-26.457031zm0 0" fill="#bcb48a"/><path d="m203.535156 308.964844v-44.136719c0-4.875-3.957031-8.828125-8.828125-8.828125-4.871093 0-8.828125 3.953125-8.828125 8.828125v44.136719zm0 0" fill="#d6cea1"/></svg>