<?xml version="1.0" encoding="iso-8859-1"?>
<!-- Generator: Adobe Illustrator 19.0.0, SVG Export Plug-In . SVG Version: 6.00 Build 0)  -->
<svg version="1.1" id="Capa_1" xmlns="http://www.w3.org/2000/svg" xmlns:xlink="http://www.w3.org/1999/xlink" x="0px" y="0px"
	 viewBox="0 0 512 512" style="enable-background:new 0 0 512 512;" xml:space="preserve">
<g>
	<rect x="42.667" y="230.4" style="fill:#474646;" width="34.133" height="17.067"/>
	<path style="fill:#474646;" d="M179.2,153.6h-17.067V34.133H42.667V17.067h128c4.71,0,8.533,3.823,8.533,8.533V153.6z"/>
	<rect x="102.4" y="119.467" style="fill:#474646;" width="17.067" height="55.595"/>
	<path style="fill:#474646;" d="M273.067,238.933H256V25.6c0-4.71,3.823-8.533,8.533-8.533h128v17.067H273.067V238.933z"/>
</g>
<path style="fill:#A5A5A5;" d="M273.067,290.133v-42.667c0-56.55-45.85-102.4-102.4-102.4s-102.4,45.85-102.4,102.4v42.667h-25.6
	v213.333h256V290.133H273.067z M221.867,290.133h-102.4v-42.667c0-28.279,22.921-51.2,51.2-51.2s51.2,22.921,51.2,51.2V290.133z"/>
<path style="fill:#4DA7FF;" d="M170.667,332.8c-18.799-0.051-34.074,15.138-34.133,33.929c-0.034,12.211,6.477,23.509,17.067,29.602
	V460.8h34.133v-64.469c16.29-9.37,21.905-30.174,12.535-46.464C194.176,339.277,182.878,332.766,170.667,332.8z"/>
<g>
	<rect x="375.467" y="110.933" style="fill:#474646;" width="17.067" height="42.667"/>
	<path style="fill:#474646;" d="M486.4,247.467h-17.067V230.4h8.533V128h17.067v110.933
		C494.933,243.644,491.11,247.467,486.4,247.467z"/>
</g>
<g>
	<circle style="fill:#FFCF40;" cx="25.6" cy="238.933" r="25.6"/>
	<circle style="fill:#FFCF40;" cx="110.933" cy="102.4" r="25.6"/>
	<circle style="fill:#FFCF40;" cx="25.6" cy="25.6" r="25.6"/>
	<circle style="fill:#FFCF40;" cx="409.6" cy="25.6" r="25.6"/>
	<circle style="fill:#FFCF40;" cx="384" cy="93.867" r="25.6"/>
	<circle style="fill:#FFCF40;" cx="486.4" cy="110.933" r="25.6"/>
</g>
<g>
	<path style="fill:#474646;" d="M307.2,145.067h-17.067V85.333c0-2.261,0.896-4.437,2.5-6.033l25.6-25.6
		c1.596-1.604,3.772-2.5,6.033-2.5h17.067v17.067h-13.534L307.2,88.866V145.067z"/>
	<rect x="196.267" style="fill:#474646;" width="17.067" height="102.4"/>
	<path style="fill:#474646;" d="M59.733,196.267H42.667v-38.571L3.2,126.123c-2.022-1.621-3.2-4.07-3.2-6.656v-51.2h17.067v47.104
		l39.467,31.573c2.022,1.621,3.2,4.07,3.2,6.656V196.267z"/>
	<path style="fill:#474646;" d="M512,68.267h-17.067v-51.2h-42.667V0h51.2C508.177,0,512,3.823,512,8.533V68.267z"/>
</g>
<path style="fill:#FFCF40;" d="M469.333,460.8h-51.2v-17.067h25.6c4.71,0,8.533-3.823,8.533-8.533v-34.133
	c0-4.71-3.823-8.533-8.533-8.533h-25.6V326.4c48.29-18.85,72.158-73.284,53.308-121.574s-73.284-72.158-121.574-53.308
	s-72.158,73.284-53.308,121.574c9.54,24.439,28.868,43.767,53.308,53.308v177.067c0,4.71,3.823,8.533,8.533,8.533h110.933
	c4.71,0,8.533-3.823,8.533-8.533v-34.133C477.867,464.623,474.044,460.8,469.333,460.8z M384,196.267
	c23.561,0,42.667,19.106,42.667,42.667S407.561,281.6,384,281.6s-42.667-19.106-42.667-42.667S360.439,196.267,384,196.267z"/>
<g>
	<path style="opacity:0.15;fill:#474646;enable-background:new    ;" d="M426.667,238.933c-0.043,21.854-16.649,40.115-38.4,42.24
		c1.425,0.137,2.807,0.427,4.267,0.427c23.561,0,42.667-19.106,42.667-42.667s-19.106-42.667-42.667-42.667
		c-1.459,0-2.842,0.29-4.267,0.427C410.018,198.818,426.624,217.079,426.667,238.933z"/>
	<path style="opacity:0.15;fill:#474646;enable-background:new    ;" d="M358.4,503.467V326.4
		c-48.273-18.833-72.132-73.225-53.299-121.498c13.491-34.577,46.097-57.95,83.166-59.622c-1.425-0.06-2.825-0.213-4.267-0.213
		c-51.84-0.034-93.901,41.958-93.935,93.798c-0.026,38.724,23.723,73.481,59.802,87.535v177.067c0,4.71,3.823,8.533,8.533,8.533
		h8.533C362.223,512,358.4,508.177,358.4,503.467z"/>
	<path style="opacity:0.15;fill:#474646;enable-background:new    ;" d="M264.533,247.467v42.667h8.533v-42.667
		c-0.06-56.525-45.875-102.34-102.4-102.4c-1.442,0-2.842,0.154-4.267,0.213C221.193,147.584,264.448,192.631,264.533,247.467z"/>
	<rect x="290.133" y="290.133" style="opacity:0.15;fill:#474646;enable-background:new    ;" width="8.533" height="213.333"/>
	<path style="opacity:0.15;fill:#474646;enable-background:new    ;" d="M110.933,247.467v42.667h8.533v-42.667
		c0.017-26.607,20.42-48.768,46.933-50.987c-1.408-0.111-2.825-0.213-4.267-0.213C133.854,196.267,110.933,219.187,110.933,247.467z
		"/>
	<path style="opacity:0.15;fill:#474646;enable-background:new    ;" d="M170.667,332.8c-1.434,0.06-2.859,0.196-4.267,0.427
		c18.603,2.202,31.898,19.055,29.696,37.658c-1.263,10.701-7.535,20.156-16.896,25.489V460.8h8.533v-64.469
		c16.29-9.37,21.905-30.174,12.535-46.464C194.176,339.277,182.878,332.766,170.667,332.8z"/>
</g>
<g>
</g>
<g>
</g>
<g>
</g>
<g>
</g>
<g>
</g>
<g>
</g>
<g>
</g>
<g>
</g>
<g>
</g>
<g>
</g>
<g>
</g>
<g>
</g>
<g>
</g>
<g>
</g>
<g>
</g>
</svg>
