<svg height="511pt" viewBox="1 0 511.99967 511" width="511pt" xmlns="http://www.w3.org/2000/svg"><path d="m52.359375 467.789062c-1.988281 0-3.980469-.761718-5.496094-2.277343-3.039062-3.039063-3.039062-7.960938 0-11l38.160157-38.160157c3.035156-3.035156 7.960937-3.035156 10.996093 0 3.039063 3.035157 3.039063 7.957032 0 10.996094l-38.160156 38.164063c-1.519531 1.515625-3.507813 2.277343-5.5 2.277343zm0 0" fill="#464646"/><path d="m248.320312 396.300781-132.238281-132.234375c-4.285156-4.285156-4.285156-11.230468 0-15.515625l152.492188-152.492187c4.285156-4.285156 11.234375-4.285156 15.515625 0l132.238281 132.234375c4.285156 4.285156 4.285156 11.234375 0 15.519531l-152.492187 152.488281c-4.285157 4.285157-11.230469 4.285157-15.515626 0zm0 0" fill="#3567c3"/><path d="m416.589844 228.554688-82.71875-82.71875 50.039062 50.042968c4.140625 4.140625 4.140625 10.851563 0 14.992188l-153.011718 153.015625c-4.140626 4.140625-10.855469 4.140625-14.996094 0l32.675781 32.675781c4.140625 4.140625 10.855469 4.140625 14.996094 0l153.015625-153.011719c4.140625-4.140625 4.140625-10.855469 0-14.996093zm0 0" fill="#2d56a1"/><path d="m142.503906 290.484375 79.394532 79.394531-31.726563 31.726563-79.394531-79.394531zm0 0" fill="#b4aaaa"/><path d="m167.5625 379 31.726562-31.722656 22.605469 22.601562-31.726562 31.726563zm0 0" fill="#9b9696"/><path d="m405.773438 217.738281-111.128907-111.125 22.84375-22.84375c2.523438-2.519531 6.609375-2.519531 9.132813 0l101.992187 101.996094c2.523438 2.523437 2.523438 6.609375 0 9.132813zm0 0" fill="#b4aaaa"/><path d="m322.054688 79.203125 90.679687 90.679687-27.40625 27.410157 20.445313 20.445312 22.84375-22.839843c2.519531-2.523438 2.519531-6.609376 0-9.132813zm0 0" fill="#9b9696"/><path d="m431.535156 145.113281-64.261718-64.261719c-2.652344-2.652343-6.949219-2.652343-9.601563 0l-16.984375 16.984376 73.859375 73.863281 16.988281-16.988281c2.652344-2.652344 2.652344-6.949219 0-9.597657zm0 0" fill="#b4aaaa"/><path d="m420.394531 133.96875-21.789062 21.789062 15.941406 15.941407 16.988281-16.988281c2.652344-2.652344 2.652344-6.949219 0-9.597657zm0 0" fill="#9b9696"/><path d="m320.832031 191.550781c-30.171875-30.171875-79.089843-30.171875-109.261719 0-30.171874 30.171875-30.171874 79.089844 0 109.261719 30.171876 30.171875 79.089844 30.171875 109.261719 0s30.171875-79.089844 0-109.261719zm0 0" fill="#464646"/><path d="m320.835938 191.546875c-3.683594-3.683594-7.652344-6.910156-11.828126-9.695313 20.019532 30.015626 16.789063 70.949219-9.695312 97.433594-26.488281 26.488282-67.421875 29.71875-97.4375 9.699219 2.785156 4.175781 6.011719 8.144531 9.699219 11.828125 30.171875 30.171875 79.089843 30.171875 109.261719 0 30.175781-30.171875 30.175781-79.09375 0-109.265625zm0 0" fill="#333"/><path d="m299.363281 213.019531c-18.316406-18.3125-48.007812-18.3125-66.324219 0-18.3125 18.316407-18.3125 48.007813 0 66.324219 18.316407 18.3125 48.007813 18.3125 66.324219 0 18.3125-18.316406 18.3125-48.007812 0-66.324219zm0 0" fill="#72d1fb"/><path d="m299.367188 213.019531c-3.015626-3.019531-6.347657-5.527343-9.882813-7.550781 10.257813 17.914062 7.746094 41.144531-7.550781 56.441406s-38.527344 17.808594-56.441406 7.550782c2.023437 3.53125 4.535156 6.863281 7.550781 9.882812 18.316406 18.3125 48.007812 18.3125 66.324219 0 18.3125-18.316406 18.3125-48.011719 0-66.324219zm0 0" fill="#40c1fa"/><path d="m163.96875 348.417969c-44.257812-44.257813-114.851562-46.132813-161.339844-5.621094-3.371094 2.933594-3.511718 8.128906-.355468 11.289063l156.027343 156.023437c3.160157 3.160156 8.355469 3.015625 11.289063-.351563 40.511718-46.488281 38.636718-117.082031-5.621094-161.339843zm0 0" fill="#3567c3"/><path d="m163.96875 348.417969c-4.882812-4.882813-10.089844-9.246094-15.546875-13.097657 32.597656 46.1875 28.238281 110.484376-13.09375 151.816407l22.972656 22.972656c3.160157 3.160156 8.355469 3.015625 11.289063-.351563 40.511718-46.488281 38.636718-117.082031-5.621094-161.339843zm0 0" fill="#2d56a1"/><path d="m59.5 452.878906c-5.871094-5.867187-15.382812-5.867187-21.25 0-5.867188 5.871094-5.867188 15.382813 0 21.25 5.867188 5.867188 15.378906 5.867188 21.25 0 5.867188-5.867187 5.867188-15.378906 0-21.25zm0 0" fill="#e04955"/><path d="m214.882812 117.339844 16.203126 16.203125-77.515626 77.515625-16.203124-16.203125zm0 0" fill="#464646"/><path d="m104.855469 212.230469-81.195313-81.195313c-4.179687-4.179687-4.179687-10.957031 0-15.136718l112.261719-112.261719c4.179687-4.183594 10.957031-4.183594 15.136719 0l81.195312 81.195312c4.183594 4.179688 4.183594 10.957031 0 15.136719l-112.261718 112.261719c-4.179688 4.179687-10.957032 4.179687-15.136719 0zm0 0" fill="#72d1fb"/><path d="m150.863281 3.441406 60.441407 60.4375-60.4375-60.4375zm0 0" fill="#40c1fa"/><path d="m232.449219 85.023438-21.144531-21.144532c4.070312 4.074219 4.070312 10.675782 0 14.75l-112.652344 112.652344c-4.074219 4.070312-10.675782 4.070312-14.75 0l21.148437 21.144531c4.074219 4.074219 10.675781 4.074219 14.746094 0l112.652344-112.652343c4.074219-4.070313 4.074219-10.675782 0-14.75zm0 0" fill="#40c1fa"/><path d="m317.527344 375.023438-16.203125-16.203126 77.515625-77.515624 16.203125 16.203124zm0 0" fill="#464646"/><path d="m300.304688 407.679688 80.898437 80.898437c4.261719 4.261719 11.171875 4.261719 15.433594 0l111.964843-111.964844c4.261719-4.261719 4.261719-11.171875 0-15.4375l-80.898437-80.898437c-4.261719-4.261719-11.171875-4.261719-15.433594 0l-111.964843 111.96875c-4.265626 4.261718-4.265626 11.171875 0 15.433594zm0 0" fill="#72d1fb"/><path d="m508.945312 361.519531-18.242187-18.242187c4.070313 4.074218 4.070313 10.675781 0 14.746094l-112.652344 112.652343c-4.074219 4.074219-10.675781 4.074219-14.75 0l-63.339843-63.339843 81.585937 81.585937c4.070313 4.074219 10.671875 4.074219 14.746094 0l112.652343-112.652344c4.074219-4.074219 4.074219-10.675781 0-14.75zm0 0" fill="#40c1fa"/><g fill="#72d1fb"><path d="m274.953125 131.71875c3.046875 3.042969 7.96875 3.03125 11 0 3.035156-3.039062 3.035156-7.960938-.003906-10.996094l-4.085938-4.089844c-3.042969-3.035156-7.964843-3.035156-11 .003907-3.035156 3.035156-3.035156 7.957031.003907 10.996093zm0 0"/><path d="m391.664062 226.433594c-3.039062-3.035156-7.960937-3.035156-11 0-3.035156 3.039062-3.035156 7.960937 0 10.996094l4.089844 4.089843c3.035156 3.039063 7.957032 3.039063 10.996094.003907 3.039062-3.039063 3.039062-7.960938 0-11zm0 0"/><path d="m147.5625 250.929688c-3.035156-3.035157-7.957031-3.035157-10.996094 0-3.035156 3.039062-3.035156 7.960937 0 11l4.089844 4.089843c3.039062 3.035157 7.960938 3.035157 10.996094 0 3.039062-3.039062 3.039062-7.960937 0-11zm0 0"/><path d="m257.363281 360.730469c-3.035156-3.035157-7.960937-3.035157-10.996093 0-3.035157 3.039062-3.035157 7.960937 0 11l4.089843 4.085937c3.035157 3.035156 7.960938 3.039063 10.996094 0 3.035156-3.039062 3.035156-7.960937 0-10.996094zm0 0"/></g><path d="m187.695312 37.183594-58.199218 58.203125-42.671875-42.667969c-3.035157-3.035156-7.957031-3.035156-10.996094 0-3.035156 3.035156-3.035156 7.957031 0 10.996094l42.667969 42.667968-58.199219 58.199219c-3.039063 3.039063-3.039063 7.960938 0 11 1.515625 1.515625 3.507813 2.277344 5.496094 2.277344 1.992187 0 3.980469-.761719 5.5-2.277344l58.199219-58.203125 42.667968 42.667969c1.519532 1.519531 3.507813 2.277344 5.5 2.277344 1.988282 0 3.980469-.757813 5.496094-2.277344 3.039062-3.039063 3.039062-7.960937 0-10.996094l-42.667969-42.667969 58.203125-58.203124c3.035156-3.035157 3.035156-7.957032 0-10.996094-3.035156-3.035156-7.960937-3.035156-10.996094 0zm0 0" fill="#3567c3"/><path d="m475.1875 313.679688c-3.035156-3.035157-7.960938-3.035157-10.996094 0l-58.203125 58.199218-42.667969-42.667968c-3.039062-3.035157-7.960937-3.035157-10.996093 0-3.039063 3.039062-3.039063 7.960937 0 11l42.667969 42.667968-58.203126 58.199219c-3.035156 3.039063-3.035156 7.960937 0 10.996094 1.519532 1.519531 3.511719 2.277343 5.5 2.277343 1.992188 0 3.980469-.757812 5.5-2.277343l58.199219-58.199219 42.667969 42.667969c1.519531 1.519531 3.511719 2.277343 5.5 2.277343s3.980469-.757812 5.5-2.277343c3.035156-3.039063 3.035156-7.960938 0-10.996094l-42.667969-42.667969 58.199219-58.203125c3.039062-3.039062 3.039062-7.960937 0-10.996093zm0 0" fill="#3567c3"/></svg>