<svg xmlns="http://www.w3.org/2000/svg" xmlns:xlink="http://www.w3.org/1999/xlink" id="Capa_1" x="0" y="0" enable-background="new 0 0 58 58" version="1.1" viewBox="0 0 58 58" xml:space="preserve"><path fill="none" stroke="#FBD490" stroke-linecap="round" stroke-linejoin="round" stroke-miterlimit="10" stroke-width="4" d="M39,22.866V11.219C39,6.149,34.5,2,29,2s-10,4.149-10,9.219v11.647"/><circle cx="29" cy="39" r="19" fill="#7383BF"/><path fill="#556080" d="M48,39c0-10.493-8.507-19-19-19v38C39.493,58,48,49.493,48,39z"/><circle cx="29" cy="39" r="8" fill="#424A60" stroke="#D8A852" stroke-linecap="round" stroke-linejoin="round" stroke-miterlimit="10" stroke-width="2"/><line x1="29" x2="29" y1="31" y2="27" fill="none" stroke="#D8A852" stroke-linecap="round" stroke-linejoin="round" stroke-miterlimit="10" stroke-width="2"/><line x1="29" x2="29" y1="51" y2="47" fill="none" stroke="#D8A852" stroke-linecap="round" stroke-linejoin="round" stroke-miterlimit="10" stroke-width="2"/><line x1="34.657" x2="37.485" y1="44.657" y2="47.485" fill="none" stroke="#D8A852" stroke-linecap="round" stroke-linejoin="round" stroke-miterlimit="10" stroke-width="2"/><line x1="20.515" x2="23.343" y1="47.485" y2="44.657" fill="none" stroke="#D8A852" stroke-linecap="round" stroke-linejoin="round" stroke-miterlimit="10" stroke-width="2"/><line x1="34.657" x2="37.485" y1="33.343" y2="30.515" fill="none" stroke="#D8A852" stroke-linecap="round" stroke-linejoin="round" stroke-miterlimit="10" stroke-width="2"/><line x1="20.515" x2="23.343" y1="30.515" y2="33.343" fill="none" stroke="#D8A852" stroke-linecap="round" stroke-linejoin="round" stroke-miterlimit="10" stroke-width="2"/><line x1="37" x2="41" y1="39" y2="39" fill="none" stroke="#D8A852" stroke-linecap="round" stroke-linejoin="round" stroke-miterlimit="10" stroke-width="2"/><line x1="17" x2="21" y1="39" y2="39" fill="none" stroke="#D8A852" stroke-linecap="round" stroke-linejoin="round" stroke-miterlimit="10" stroke-width="2"/><circle cx="29" cy="39" r="4" fill="#556080"/></svg>