<svg xmlns="http://www.w3.org/2000/svg" xmlns:xlink="http://www.w3.org/1999/xlink" id="Capa_1" x="0" y="0" enable-background="new 0 0 512 512" version="1.1" viewBox="0 0 512 512" xml:space="preserve"><path fill="#5CDBF1" d="M308.928,355.944H203.073c-45.69,0-82.862,37.172-82.862,82.862V504.5c0,4.142,3.358,7.5,7.5,7.5	h256.578c4.142,0,7.5-3.358,7.5-7.5v-65.694C391.789,393.116,354.617,355.944,308.928,355.944z"/><path fill="#37B7C4" d="M308.928,355.944h-25.321c45.69,0,82.861,37.172,82.861,82.862V504.5c0,4.142-3.357,7.5-7.5,7.5	h25.321c4.142,0,7.5-3.358,7.5-7.5v-65.694C391.789,393.116,354.617,355.944,308.928,355.944z"/><path fill="#F0EEEE" d="M356.263,373.799c-0.32-2.175-1.578-4.1-3.441-5.266c-8.182-5.12-17.098-8.735-26.499-10.746	c-1.911-0.408-3.907-0.055-5.563,0.986L256,399.515l-64.76-40.741c-1.655-1.042-3.653-1.394-5.562-0.986	c-9.403,2.01-18.319,5.626-26.5,10.746c-1.863,1.166-3.121,3.091-3.441,5.265c-8.933,60.68,16.791,74.361,32.921,77.116	c2.63,0.449,5.317,0.662,8.044,0.662c22.916,0,48.267-15.049,59.263-31.373c4.762,7.153,12.353,14.135,21.925,19.909	c12.365,7.46,25.601,11.458,37.441,11.458c2.755,0,5.435-0.216,8.01-0.656C339.471,448.16,365.196,434.479,356.263,373.799z"/><path fill="#D9D4D4" d="M357.967,402.295c0.388-8.108-0.09-17.531-1.704-28.496c-0.282-1.918-1.296-3.64-2.809-4.82	c-0.502-0.321-0.995-0.655-1.504-0.965c-0.094-0.057-0.189-0.112-0.284-0.169c-0.996-0.602-2.007-1.183-3.03-1.745	c-0.196-0.107-0.393-0.212-0.59-0.318c-0.934-0.503-1.88-0.987-2.835-1.454c-0.251-0.123-0.502-0.245-0.754-0.365	c-0.914-0.435-1.838-0.852-2.769-1.254c-0.286-0.123-0.571-0.25-0.858-0.37c-0.911-0.382-1.833-0.741-2.761-1.091	c-0.308-0.116-0.613-0.239-0.922-0.351c-0.939-0.341-1.89-0.657-2.844-0.964c-0.298-0.096-0.593-0.203-0.893-0.296	c-1.192-0.369-2.396-0.711-3.61-1.027c-0.624-0.162-1.256-0.298-1.884-0.446c-0.571-0.134-1.14-0.274-1.715-0.397	c-1.874-0.367-3.819-0.013-5.439,1.006l-5.507,3.464C333.879,369.966,349.093,384.295,357.967,402.295z"/><path fill="#FA9E3E" d="M308.93,355.94H298.1v-88.21h-84.2v88.21h-10.83c-10,0-19.59,1.78-28.47,5.04	c0.71,2.42,1.52,4.79,2.43,7.11c12.37,31.53,43.05,53.86,78.97,53.86s66.6-22.33,78.97-53.86c0.91-2.32,1.72-4.69,2.43-7.11	C328.52,357.72,318.93,355.94,308.93,355.94z"/><path fill="#35343F" d="M256,0c-32.026,0-58.081,26.055-58.081,58.081s26.055,58.08,58.081,58.08s58.081-26.055,58.081-58.08	C314.081,26.055,288.026,0,256,0z"/><g><path fill="#484655" d="M256,50.167c-75.111,0-136,63.997-136,142.941s60.889,101.225,136,101.225s136-22.281,136-101.225 S331.111,50.167,256,50.167z"/><path fill="#484655" d="M256,301.834c-43.626,0-76.386-7.247-100.152-22.155c-28.764-18.043-43.348-47.169-43.348-86.57 c0-82.954,64.374-150.441,143.5-150.441s143.5,67.488,143.5,150.441c0,39.401-14.584,68.527-43.349,86.57 C332.386,294.586,299.626,301.834,256,301.834z M256,57.667c-70.855,0-128.5,60.759-128.5,135.441 c0,34.372,11.88,58.533,36.319,73.863c21.01,13.179,52.025,19.862,92.181,19.862s71.171-6.683,92.181-19.862 c24.439-15.33,36.319-39.491,36.319-73.863C384.5,118.426,326.855,57.667,256,57.667z"/></g><g><path fill="#FA9E3E" d="M125.839,223.99h49.369v56.61h-49.369c-15.632,0-28.305-12.673-28.305-28.305 S110.207,223.99,125.839,223.99z"/><path fill="#FA9E3E" d="M386.161,199.67h-49.369v56.61h49.369c15.632,0,28.305-12.673,28.305-28.305 S401.793,199.67,386.161,199.67z"/></g><path fill="#FFB56B" d="M368.11,198.48v32.2c0,30.96-12.55,58.98-32.83,79.27c-20.29,20.29-48.32,32.84-79.28,32.84	c-0.97,0-1.93-0.01-2.89-0.04h-0.13c-0.92-0.02-1.84-0.06-2.75-0.11c-0.07,0-0.13,0-0.2-0.01c52.82-2.95,94.75-46.72,94.75-100.29	v-77.69C346.26,182.5,354.27,194.76,368.11,198.48z"/><path fill="#49B6F2" d="M388.933,280.337H353V199.67h35.933c14.101,0,25.532,11.431,25.532,25.532v29.602	C414.466,268.905,403.035,280.337,388.933,280.337z"/><path fill="#2E93CC" d="M388.933,199.67h-22.466c14.101,0,25.532,11.431,25.532,25.532v29.602	c0,14.101-11.431,25.532-25.532,25.532h22.466c14.101,0,25.533-11.431,25.533-25.532v-29.602	C414.466,211.101,403.035,199.67,388.933,199.67z"/><path fill="#FFB56B" d="M344.78,151.88c-0.34,4.52-0.33,8.79,0,12.77v77.69c0,53.57-41.93,97.34-94.75,100.29h-0.04	c-59.13-3.12-106.1-52.06-106.1-111.95v-45.879c0-4.039,3.715-7.07,7.667-6.236c134.87,28.453,165.285-19.629,193.223-49.275	c0.019-0.02,0.037-0.039,0.056-0.059c1.431-1.516,3.925-0.12,3.416,1.902C346.398,138.491,345.245,145.439,344.78,151.88z"/><path fill="#EF9245" d="M368.11,198.48v32.2c0,30.96-12.55,58.98-32.83,79.27c-20.29,20.29-48.32,32.84-79.28,32.84	c-0.97,0-1.93-0.01-2.89-0.04h-0.13c-0.92-0.02-1.84-0.06-2.75-0.11c-0.07,0-0.13,0-0.2-0.01c52.82-2.95,94.75-46.72,94.75-100.29	v-77.69C346.26,182.5,354.27,194.76,368.11,198.48z"/><g><path fill="#19303F" d="M310.323,229.962c-4.142,0-7.5-3.358-7.5-7.5v-2c0-4.142,3.358-7.5,7.5-7.5 c4.143,0,7.5,3.358,7.5,7.5v2C317.823,226.605,314.466,229.962,310.323,229.962z"/><path fill="#19303F" d="M201.676,229.962c-4.142,0-7.5-3.358-7.5-7.5v-2c0-4.142,3.358-7.5,7.5-7.5s7.5,3.358,7.5,7.5v2 C209.176,226.605,205.818,229.962,201.676,229.962z"/><path fill="#19303F" d="M388.933,280.337h-11.924c-0.139,0.57-0.22,1.163-0.22,1.775c0,10.139-8.249,18.388-18.388,18.388 h-73.068c-4.143,0-7.5,3.358-7.5,7.5s3.357,7.5,7.5,7.5h73.068c18.41,0,33.388-14.978,33.388-33.388 c0-0.66-0.094-1.297-0.254-1.906C390.68,280.292,389.812,280.337,388.933,280.337z"/></g><path fill="#5CDBF1" d="M273.667,288.834H257c-10.568,0-19.167,8.598-19.167,19.166s8.598,19.167,19.167,19.167h16.667	c10.568,0,19.166-8.598,19.166-19.167C292.833,297.432,284.235,288.834,273.667,288.834z"/></svg>