<?xml version="1.0" encoding="iso-8859-1"?>
<!-- Generator: Adobe Illustrator 19.0.0, SVG Export Plug-In . SVG Version: 6.00 Build 0)  -->
<svg version="1.1" id="Capa_1" xmlns="http://www.w3.org/2000/svg" xmlns:xlink="http://www.w3.org/1999/xlink" x="0px" y="0px"
	 viewBox="0 0 512 512" style="enable-background:new 0 0 512 512;" xml:space="preserve">
<rect x="8.533" y="8.533" style="fill:#A5A5A5;" width="494.933" height="494.933"/>
<g>
	<rect x="315.733" y="59.733" style="fill:#FFCF40;" width="136.533" height="136.533"/>
	<rect x="59.733" y="59.733" style="fill:#FFCF40;" width="136.533" height="136.533"/>
	<rect x="59.733" y="315.733" style="fill:#FFCF40;" width="136.533" height="136.533"/>
</g>
<g>
	<path style="fill:#474646;" d="M17.067,17.067H102.4V0H8.533C3.823,0,0,3.823,0,8.533V102.4h17.067V17.067z"/>
	<path style="fill:#474646;" d="M503.467,0H409.6v17.067h85.333V102.4H512V8.533C512,3.823,508.177,0,503.467,0z"/>
	<path style="fill:#474646;" d="M17.067,409.6H0v93.867C0,508.177,3.823,512,8.533,512H102.4v-17.067H17.067V409.6z"/>
	<path style="fill:#474646;" d="M494.933,494.933H409.6V512h93.867c4.71,0,8.533-3.823,8.533-8.533V409.6h-17.067V494.933z"/>
	<path style="fill:#474646;" d="M51.2,59.733v136.533c0,4.71,3.823,8.533,8.533,8.533h136.533c4.71,0,8.533-3.823,8.533-8.533
		V59.733c0-4.71-3.823-8.533-8.533-8.533H59.733C55.023,51.2,51.2,55.023,51.2,59.733z M68.267,68.267h119.467v119.467H68.267
		V68.267z"/>
	<path style="fill:#474646;" d="M162.133,85.333H93.867c-4.71,0-8.533,3.823-8.533,8.533v68.267c0,4.71,3.823,8.533,8.533,8.533
		h68.267c4.71,0,8.533-3.823,8.533-8.533V93.867C170.667,89.156,166.844,85.333,162.133,85.333z M153.6,153.6h-51.2v-51.2h51.2
		V153.6z"/>
	<path style="fill:#474646;" d="M418.133,85.333h-68.267c-4.71,0-8.533,3.823-8.533,8.533v68.267c0,4.71,3.823,8.533,8.533,8.533
		h68.267c4.71,0,8.533-3.823,8.533-8.533V93.867C426.667,89.156,422.844,85.333,418.133,85.333z M409.6,153.6h-51.2v-51.2h51.2
		V153.6z"/>
	<path style="fill:#474646;" d="M93.867,426.667h68.267c4.71,0,8.533-3.823,8.533-8.533v-68.267c0-4.71-3.823-8.533-8.533-8.533
		H93.867c-4.71,0-8.533,3.823-8.533,8.533v68.267C85.333,422.844,89.156,426.667,93.867,426.667z M102.4,358.4h51.2v51.2h-51.2
		V358.4z"/>
	<path style="fill:#474646;" d="M460.8,452.267v-102.4c0-4.71-3.823-8.533-8.533-8.533H358.4c-4.71,0-8.533,3.823-8.533,8.533v25.6
		h-25.6v-25.6c0-4.71-3.823-8.533-8.533-8.533h-42.667V281.6H307.2v34.133c0,4.71,3.823,8.533,8.533,8.533H460.8V307.2H324.267
		v-25.6H460.8v-17.067h-25.6v-25.6h25.6v-17.067h-25.6V204.8h17.067c4.71,0,8.533-3.823,8.533-8.533V59.733
		c0-4.71-3.823-8.533-8.533-8.533H315.733c-4.71,0-8.533,3.823-8.533,8.533v59.733h-34.133V102.4h17.067V85.333h-17.067V68.267
		h17.067V51.2H256V128c0,4.71,3.823,8.533,8.533,8.533H307.2V153.6h-68.267V51.2h-17.067v179.2h-153.6v-8.533H51.2v68.267h17.067
		V281.6h42.667v25.6h-51.2c-4.71,0-8.533,3.823-8.533,8.533v136.533c0,4.71,3.823,8.533,8.533,8.533h136.533
		c4.71,0,8.533-3.823,8.533-8.533v-8.533h17.067v-17.067H204.8V409.6h17.067v-17.067H204.8v-17.067h17.067V358.4H204.8v-17.067
		h17.067v-17.067H204.8v-8.533c0-4.71-3.823-8.533-8.533-8.533h-34.133v-25.6H256v25.6h-17.067v17.067H256v17.067h-17.067V358.4H256
		v17.067h-17.067v17.067H256V409.6h-17.067v17.067H256V460.8h17.067V358.4H307.2v17.067h-8.533c-4.71,0-8.533,3.823-8.533,8.533
		v68.267c0,4.71,3.823,8.533,8.533,8.533h153.6C456.977,460.8,460.8,456.977,460.8,452.267z M358.4,230.4v-25.6H384v59.733h-59.733
		v-25.6h25.6C354.577,238.933,358.4,235.11,358.4,230.4z M418.133,264.533h-17.067V204.8h17.067V264.533z M324.267,68.267h119.467
		v119.467H324.267V68.267z M315.733,204.8h25.6v17.067h-25.6c-4.71,0-8.533,3.823-8.533,8.533v34.133h-34.133v-93.867H307.2v25.6
		C307.2,200.977,311.023,204.8,315.733,204.8z M162.133,247.467H179.2v17.067h-17.067V247.467z M196.267,247.467h17.067v17.067
		h-17.067V247.467z M187.733,443.733H68.267V324.267h119.467V443.733z M128,307.2v-34.133c0-4.71-3.823-8.533-8.533-8.533h-51.2
		v-17.067h76.8V307.2H128z M230.4,264.533v-17.067c4.71,0,8.533-3.823,8.533-8.533v-68.267H256v93.867H230.4z M409.6,358.4h34.133
		v34.133H409.6V358.4z M358.4,443.733h-51.2v-51.2h51.2V443.733z M409.6,443.733v-17.067h-17.067v17.067h-17.067V384
		c0-4.71-3.823-8.533-8.533-8.533V358.4h25.6v42.667c0,4.71,3.823,8.533,8.533,8.533h42.667v34.133H409.6z"/>
</g>
<g>
</g>
<g>
</g>
<g>
</g>
<g>
</g>
<g>
</g>
<g>
</g>
<g>
</g>
<g>
</g>
<g>
</g>
<g>
</g>
<g>
</g>
<g>
</g>
<g>
</g>
<g>
</g>
<g>
</g>
</svg>
